<?xml version="1.0" encoding="utf-8"?>
<!-- Generator: Adobe Illustrator 28.2.0, SVG Export Plug-In . SVG Version: 6.00 Build 0)  -->
<svg version="1.1" id="RGB" xmlns="http://www.w3.org/2000/svg" xmlns:xlink="http://www.w3.org/1999/xlink" x="0px" y="0px"
	 viewBox="0 0 594.8 322" style="enable-background:new 0 0 594.8 322;" xml:space="preserve">
<style type="text/css">
	.st0{fill:#003A40;}
	.st1{fill-rule:evenodd;clip-rule:evenodd;fill:#003A40;}
</style>
<g>
	<g>
		<g>
			<g>
				<g>
					<path class="st0" d="M176.2,118.2V59.6h-58.6v22.2c0,4-3.3,7.3-7.3,7.3H59v58.4h51.3c4,0,7.3,3.3,7.3,7.3v14.7
						c0,4-3.3,7.3-7.3,7.3H59v58.6h58.6v-22c0-4,3.3-7.3,7.3-7.3h51.3v-58.6h-51.3c-4,0-7.3-3.3-7.3-7.3v-14.7c0-4,3.3-7.3,7.3-7.3
						H176.2z"/>
				</g>
				<g>
					<g>
						<g>
							<path class="st1" d="M393.9,208.1h-7.7c-23.2,0-42.1-18.9-42.1-42.1v-7.7c0-23.2,18.9-42.1,42.1-42.1h7.7
								c23.2,0,42.1,18.9,42.1,42.1v7.7C436,189.2,417.1,208.1,393.9,208.1z M386.2,138c-11.2,0-20.4,9.1-20.4,20.4v7.7
								c0,11.2,9.1,20.4,20.4,20.4h7.7c11.2,0,20.4-9.1,20.4-20.4v-7.7c0-11.2-9.1-20.4-20.4-20.4H386.2z"/>
						</g>
						<path class="st0" d="M223.5,206.3c-4.1-1.2-19.1-6.3-20.2-25.6h25.1c0.7,2.8,2,5,4,6.5c2.1,1.6,4.9,2.3,8.6,2.3h9.3
							c3.3,0,6-0.7,7.9-2.2c1.9-1.5,2.9-3.7,2.9-6.4c0-3-1.3-5-3.2-6.2c-1.8-1.2-4.1-1.7-6.2-1.9l-18.7-1.9h0
							c-8.6-0.7-15.4-3.5-19.9-8c-4.5-4.5-7-10.8-7-18.6c0-20.2,17.4-25.2,21.4-26.3c3.9-1.1,8.9-1.6,16.2-1.6
							c14.3,0,21.9,2.4,28.5,7c6.6,4.6,10.3,11.4,10.9,20.2h-25.1c-0.5-2.8-1.7-4.9-3.6-6.4c-2.1-1.5-4.9-2.2-8.5-2.2h-6.6
							c-3.1,0-5.6,0.7-7.4,2.2c-1.8,1.5-2.8,3.6-2.8,6.2c0,2.4,0.8,4.3,2.5,5.8c1.6,1.4,4,2.3,7,2.6h0l18.9,1.9h0
							c8.1,0.7,14.7,3.2,19.2,7.2c5,4.5,7.5,10.8,7.5,18.8c0,9.7-3.1,16.7-9.6,21.4c-6.6,4.7-17,7.1-31.7,7.1
							C233.2,208.1,227.6,207.5,223.5,206.3z"/>
					</g>
					<g>
						<path class="st0" d="M511.9,88.7h23.4V112H515c-1.7,0-3.1-1.4-3.1-3.1V88.7z"/>
						<path class="st0" d="M510.3,140.2h-4.7v-21.9h29.7v87.8h-21.9v-62.9C513.3,141.5,512,140.2,510.3,140.2z"/>
					</g>
					<path class="st0" d="M467.3,143.2v62.9h-21.9v-57.4c0-16.8,13.6-30.4,30.4-30.4h22.6v21.9h-28
						C468.7,140.2,467.3,141.5,467.3,143.2z"/>
					<path class="st0" d="M337.7,184.4h-13.3c-5.6,0-10.1-4.5-10.1-10.1l0-31.1c0-1.7,1.4-3.1,3.1-3.1h20.3v-21.9h-20.3
						c-1.7,0-3.1-1.4-3.1-3.1l0-20.3h-21.9v79.5c0,17.5,14.2,31.8,31.8,31.8h13.6V184.4z"/>
				</g>
			</g>
		</g>
	</g>
</g>
</svg>
